# xmcd CD database file
#
# Track frame offsets:
#	150
#	24669
#	52202
#	76040
#	84177
#	111752
#	113780
#	128110
#	152672
#	176495
#	182212
#	189837
#	215357
#	240705
#	251147
#	278672
#	306345
#	338827
#
# Disc length: 4611 seconds
#
# Revision: 0
# Processed by: cddbd v1.5.1PL2 Copyright (c) Steve Scherf et al.
# Submitted via: CDex 1.51
#
DISCID=f1120112
DTITLE=E-Z Rollers  - Weekend World
DYEAR=1998
DGENRE=Drum and Bass
TTITLE0=Hang On
TTITLE1=Soundclash
TTITLE2=Hip to the Game
TTITLE3=Cop Theme
TTITLE4=Tough at the Top
TTITLE5=Word from Dave
TTITLE6=Nightfall
TTITLE7=Movin' On
TTITLE8=Diff Step
TTITLE9=Rhode Trip
TTITLE10=Short Change
TTITLE11=Funked Up Flava's
TTITLE12=Retro
TTITLE13=Walk This Land (Remix)
TTITLE14=Tribe
TTITLE15=Weekend World
TTITLE16=Synesthesia
TTITLE17=DATA TRACK
EXTD=YEAR: 1998
EXTT0=
EXTT1=
EXTT2=
EXTT3=
EXTT4=
EXTT5=
EXTT6=
EXTT7=
EXTT8=
EXTT9=
EXTT10=
EXTT11=
EXTT12=
EXTT13=
EXTT14=
EXTT15=
EXTT16=
EXTT17=
PLAYORDER=
